<?xml version="1.0" encoding="utf-8"?>
<!-- Generator: Adobe Illustrator 25.0.0, SVG Export Plug-In . SVG Version: 6.00 Build 0)  -->
<svg version="1.1" id="Layer_1" xmlns="http://www.w3.org/2000/svg" xmlns:xlink="http://www.w3.org/1999/xlink" x="0px" y="0px"
	 viewBox="0 0 2000 2000" style="enable-background:new 0 0 2000 2000;" xml:space="preserve">
<style type="text/css">
	.st0{display:none;fill:#FF0000;}
	.st1{fill:#9E005D;}
	.st2{fill:#1B1464;}
</style>
<rect class="st0" width="2000" height="2000"/>
<g>
	<g>
		<path class="st1" d="M1337.19,1051.01l-0.06,0.43l-0.43,2.8l-2.35,15.38l-2.32-0.21c-0.1-0.03-0.19-0.03-0.3-0.03l-2.59-0.37
			l-5.2-0.71l-10.38-1.43l-20.75-2.88l-20.75-2.88l-20.83-2.37l-41.64-4.7l-33.02-2.97l-3.18-0.29l-5.56-0.49l-15.86-1.38
			l-3.18-0.29l-1.84-0.16l-19.59-1.3l-1.32-0.1c-0.62-0.05-1.24-0.08-1.86-0.13c-7.13-0.46-14.27-0.95-21.42-1.43
			c-1.05-0.06-2.11-0.14-3.18-0.21c-5.12-0.33-10.25-0.67-15.38-0.97l-6.05-0.29l-3.18-0.16l-21.42-1.02l-3.18-0.16l-8.06-0.38
			c-4.45-0.24-8.91-0.43-13.36-0.59c-1.06-0.03-2.13-0.06-3.18-0.11c-7.15-0.22-14.3-0.4-21.43-0.6c-1.06-0.03-2.11-0.06-3.18-0.1
			c-0.25,0-0.49-0.02-0.75-0.02c-6.9-0.19-13.78-0.4-20.67-0.59c-1.05-0.02-2.11-0.05-3.18-0.06c-6.02-0.14-12.04-0.25-18.07-0.29
			c-1.13-0.02-2.24-0.03-3.37-0.05c-1.06,0-2.11-0.02-3.18-0.03c-7.13-0.1-14.28-0.21-21.42-0.27c-1.06-0.02-2.13-0.03-3.18-0.03
			c-3.59-0.03-7.18-0.05-10.77-0.05l-41.93,0.17l-41.91,0.71c-13.97,0.35-27.92,0.91-41.88,1.33c-13.95,0.57-27.9,1.19-41.85,1.86
			c-13.93,0.78-27.88,1.49-41.79,2.46c-6.97,0.46-13.92,0.98-20.86,1.54c-6.93,0.54-13.92,1.14-20.72,1.78l-1.92-23.75
			c7.17-0.41,14.16-0.78,21.21-1.06c7.04-0.32,14.08-0.62,21.1-0.83c14.06-0.59,28.12-0.95,42.17-1.37
			c14.06-0.3,28.11-0.57,42.15-0.76c2.18-0.02,4.35-0.03,6.53-0.05c4.74-0.03,9.47-0.08,14.2-0.11c1.51-0.02,3-0.02,4.5-0.02
			c5.64-0.05,11.28-0.08,16.92-0.06h2.76c2.83-0.02,5.64-0.03,8.47-0.03c6.58,0,13.14,0.02,19.72,0.06c1.99,0,3.97,0,5.96,0.03
			c4.73,0.02,9.47,0.06,14.2,0.13c6.37,0.06,12.76,0.14,19.13,0.25c1.06,0.02,2.13,0.03,3.18,0.06c7.15,0.11,14.3,0.25,21.43,0.43
			c1.06,0.02,2.11,0.05,3.18,0.08c7.13,0.16,14.28,0.35,21.42,0.57c1.06,0.02,2.11,0.05,3.18,0.1c7.15,0.21,14.28,0.43,21.43,0.7
			c1.06,0.03,2.11,0.06,3.18,0.11c7.09,0.24,14.16,0.52,21.24,0.81h0.17c1.06,0.05,2.11,0.08,3.18,0.13
			c7.15,0.27,14.3,0.59,21.43,0.95c1.06,0.05,2.11,0.09,3.18,0.16c7.13,0.37,14.28,0.75,21.42,1.16c1.05,0.06,2.11,0.13,3.18,0.19
			c7.13,0.4,14.28,0.81,21.42,1.21c1.06,0.08,2.11,0.13,3.18,0.17c2.32,0.14,4.66,0.27,6.98,0.4c4.83,0.33,9.64,0.67,14.46,1.03
			c1.06,0.08,2.13,0.16,3.18,0.24c7.15,0.52,14.28,1.08,21.42,1.6c0.99,0.08,1.97,0.14,2.96,0.22l0.22,0.02l20.78,1.56l0.65,0.06
			l3.18,0.3l17.14,1.64l4.27,0.4l3.18,0.3l10.49,0.98l17.68,1.67l6.32,0.6l16.22,1.87l15.71,1.81l9.91,1.14l6.91,0.81l3.18,0.37
			l10.85,1.27l2.1,0.3l3.18,0.44l12.95,1.84l2.64,0.37l0.54,0.08l4.67,0.65l6.32,0.89l0.02,0.02l1.95,0.27l3.16,0.44l4.19,0.59
			l10.44,1.48l5.21,0.73l2.61,0.37c0.52,0.16,1.1,0.03,1.78-1.05c0.43-0.64,0.91-1.6,1.43-3.03
			C1337.09,1051.26,1337.14,1051.14,1337.19,1051.01z"/>
		<path class="st1" d="M796.91,855.01v233.83c4.73-0.16,9.47-0.3,14.2-0.44v-70.88l4.5,3.96l6.47,5.69l7.56,6.64l-7.5,6.59
			c3.35-0.11,6.69-0.21,10.04-0.3c7.9-0.22,15.81-0.43,23.71-0.6l-6.47-5.69l10.58-9.31l3.48-3.05l5.96-5.23v70.62
			c4.73-0.13,9.47-0.22,14.2-0.29v-168.3c6.07,6.63,12.44,12.85,19.13,18.72c0,0,0.01,0,0.01,0.01v99.46h3.18V939.7
			c4.32,3.65,8.75,7.15,13.31,10.48c2.7,1.99,5.42,3.88,8.12,5.69v85.03h3.18v-82.94c7.18,4.66,14.33,8.75,21.42,12.38v69.56
			c1.06,0.02,2.11,0.03,3.18,0.03v-68c7.28,3.59,14.46,6.67,21.43,9.29v59.04c1.06,0.02,2.13,0.05,3.18,0.06V982.4
			c7.4,2.67,14.59,4.86,21.42,6.63v51.91c1.06,0.03,2.11,0.06,3.18,0.1v-51.21c7.66,1.87,14.84,3.23,21.43,4.18v47.63
			c1.05,0.05,2.11,0.08,3.18,0.11v-47.3c8.31,1.08,15.57,1.54,21.42,1.64v46.63l3.18,0.16V996.1c5.58-0.05,9.53-0.43,11.47-0.86
			c2.15,0.32,4.31,0.57,6.47,0.78c1.16,0.06,2.32,0.11,3.48,0.14v47.73l3.18,0.16v-47.82c7.31,0.08,14.44-0.43,21.43-1.51v50.59
			c1.06,0.06,2.13,0.14,3.18,0.21v-51.32c7.32-1.29,14.46-3.23,21.42-5.78v58.53c0.62,0.05,1.24,0.08,1.86,0.13l1.32,0.1v-59.98
			c7.36-2.92,14.51-6.55,21.43-10.9v72.34l3.18,0.29v-74.68c7.4-4.89,14.54-10.61,21.42-17.14v93.69l3.18,0.29v-97.05c0,0,0,0,0,0
			c1.97-1.97,3.91-3.99,5.83-6.08c1.59-1.72,3.13-3.46,4.66-5.24v146.34h9.17v-42.82h0.02l8.5-7.12l4.48-3.73l5.32-4.43l7.63,6.37
			l5.12,4.27l6.04,5.04l-2.86,2.51c1.13,0.11,2.24,0.22,3.37,0.35v39.56h9.17v-99.22c4.24,5.99,8.44,11.47,12.46,16.43
			c1.67,2.06,3.33,4.06,5,6l-0.82,43.49l3.18,0.06l0.76-39.95c4.38,4.97,8.67,9.48,12.74,13.56v0.01l-0.35,17.86l-0.21,10.96
			l3.18,0.06l0.21-10.58l0.29-15.24c4.61,4.51,8.93,8.42,12.77,11.74v0.01l-0.11,5.33l-0.21,11.2l3.18,0.06l0.21-10.82l0.06-3.13v0
			c0,0,0,0,0,0v0.02c1.65,1.38,3.19,2.64,4.61,3.77c3.59,2.86,6.4,4.93,8.2,6.2l-0.13,6.44l3.18,0.06l0.13-6.42v0l0.78-1.21
			c-0.02-0.02-0.27-0.17-0.75-0.51l0.05-2.94l0.44-23.15c7.18,8.47,15.09,16.92,23.78,25.26c0.16,0.16,0.32,0.3,0.48,0.46l0.6-0.64
			l0.43-2.8c-0.03-0.02-0.06-0.05-0.08-0.06c-9.25-8.93-17.59-17.99-25.14-27.09c-1.05-1.26-2.08-2.53-3.1-3.78
			c-4.53-5.62-8.74-11.25-12.68-16.84c-1.06-1.49-2.08-2.99-3.1-4.48c-4.59-6.78-8.79-13.52-12.6-20.16
			c-1.06-1.83-2.08-3.65-3.08-5.47c-22.56-41.13-31.11-78.33-34.35-100.21v-29.01c0-2.54-2.05-4.59-4.59-4.59
			c-2.53,0-4.58,2.05-4.58,4.59v3.73h-37.61v-3.73c0-2.54-2.05-4.59-4.59-4.59c-0.24,0-0.48,0.02-0.71,0.06l-0.17-1.57l-0.46,1.72
			h-0.02c-1.86,0.59-3.21,2.32-3.21,4.39v6.8c-1.86,5.78-5.43,16.21-10.87,28.87c-0.89,2.05-1.81,4.16-2.8,6.34
			c-5.53,12.19-12.65,25.95-21.42,39.42c-1.03,1.59-2.1,3.18-3.18,4.75c-6.32,9.23-13.46,18.24-21.43,26.41c0,0,0,0,0,0v0
			c-1.03,1.08-2.1,2.13-3.18,3.18v0c-6.59,6.4-13.73,12.2-21.42,17.1c-1.05,0.68-2.11,1.33-3.18,1.97
			c-6.72,3.99-13.87,7.28-21.43,9.69c-1.05,0.33-2.11,0.65-3.18,0.95v0c-3.24,0.91-6.56,1.65-9.96,2.22
			c-3.89-0.57-7.71-1.3-11.46-2.21c-1.06-0.24-2.13-0.51-3.18-0.78c-7.42-1.95-14.57-4.51-21.42-7.61
			c-1.06-0.46-2.13-0.95-3.18-1.48c-7.48-3.56-14.63-7.77-21.43-12.47c-1.06-0.75-2.13-1.49-3.18-2.26
			c-7.56-5.48-14.7-11.58-21.42-18.14c-1.06-1.05-2.13-2.1-3.18-3.16c-7.69-7.8-14.82-16.19-21.43-24.93
			c-1.08-1.41-2.13-2.83-3.18-4.27c-7.93-10.85-15.06-22.16-21.42-33.41c-1.08-1.91-2.15-3.81-3.18-5.72
			c-3.83-7.04-7.36-14.01-10.6-20.83c-15.47-32.51-26.26-64.79-33.14-88.78v-80.12c0-3.92-3.18-7.1-7.1-7.1s-7.1,3.18-7.1,7.1v5.8
			h-58.33v-5.8c0-3.92-3.18-7.1-7.1-7.1c-3.92,0-7.1,3.18-7.1,7.1v24.83c-12.38,35.59-54.21,140.47-134.1,198.17l1.86,2.57
			c3.11-2.26,6.18-4.58,9.18-6.98c0,0,0,0,0,0l0.38,41.66c0,0,0,0,0,0c-5.43,1.88-8.48,2.53-8.58,2.54l0.64,3.11
			c0.37-0.06,3.16-0.65,7.98-2.26l0.77,85.24l3.18-0.03l-0.78-86.33c7.96-2.88,19.79-8.01,34.31-16.79c0,0,0,0,0.01,0v97.81h3.18
			v-99.78c6.64-4.15,13.77-9.05,21.33-14.82c3.15-2.4,6.42-5,9.8-7.83c0,0,0,0,0,0l0.75,120.48l3.18-0.02l-0.76-123.12
			C763.67,891.98,779.94,875.86,796.91,855.01z M1296.04,1009.02c3.94,5.43,8.15,10.92,12.68,16.4l-0.49,26.44l-0.03,1.16
			c-0.59-0.43-1.22-0.91-1.92-1.43l-0.02-0.02c-2.8-2.11-6.5-5.02-10.87-8.75c0,0,0,0,0,0L1296.04,1009.02z M1280.31,985.2
			c3.85,6.39,8.04,12.9,12.63,19.46l-0.67,35.46c-3.88-3.43-8.2-7.42-12.77-12c0,0,0,0,0,0L1280.31,985.2z M1264.7,955.78
			C1264.71,955.79,1264.71,955.79,1264.7,955.78c3.61,7.76,7.76,15.85,12.54,24.14l-0.86,45.06c-4.1-4.19-8.36-8.8-12.73-13.85l0,0
			L1264.7,955.78z M1243,891.6c1.76,8.18,4.12,17.38,7.28,27.31c2.88,9.04,6.59,19.19,11.37,30.1l-1.1,58.42c0,0,0,0,0,0
			c-0.87-1.05-1.75-2.1-2.62-3.18c-4.8-5.91-9.85-12.58-14.92-20V891.6z M1233.84,1036.39l-12.9-10.79l12.9-10.77V1036.39z
			 M1233.84,994.43l-12.9-10.77l11.6-9.69c0.41,0.7,0.86,1.4,1.3,2.1V994.43z M1230.75,964.8c-1.51-2.59-2.99-5.23-4.45-7.94
			l6.98,5.83L1230.75,964.8z M1233.84,952.49l-12.9-10.79l12.9-10.77V952.49z M1208.16,899.75l-4.45,3.72
			c-1.02-3.24-2-6.53-2.92-9.88L1208.16,899.75z M1197.39,880.08c-0.32-1.41-0.64-2.86-0.94-4.29h29.9c0,0,0,0,0,0
			c-2.62,5.13-5.42,10.41-8.37,15.76l-3.43,2.86L1197.39,880.08z M1207.59,915.02C1207.59,915.02,1207.59,915.02,1207.59,915.02
			c1.89-2.89,3.7-5.78,5.47-8.69l0,0l1.49-1.26l18.73,15.65l-17.52,14.65C1212.88,928.89,1210.13,922.11,1207.59,915.02z
			 M1211.66,933.96l-10.79-9.01c1.56-2.19,3.07-4.4,4.54-6.61C1207.38,923.73,1209.48,928.92,1211.66,933.96z M1233.84,910.54
			l-12.9-10.79l12.9-10.79V910.54z M1233.84,878.3l-9.28,7.75c1.86-3.48,3.65-6.91,5.35-10.26c0,0,0,0,0,0h3.92V878.3z
			 M1196.23,856.25h37.61v4.56c-1.08,2.22-2.21,4.5-3.35,6.8h-34.26V856.25z M1196.23,889.77l0.32,0.27
			c1.4,5.35,2.91,10.57,4.53,15.63l-4.85,4.05V889.77z M1196.23,920.39l7.63-6.37c0.08,0.22,0.16,0.44,0.24,0.67v0
			c-1.81,2.76-3.67,5.53-5.61,8.26l-2.26-1.87V920.39z M1196.23,931.72l11.93,9.98l-11.93,9.98V931.72z M1196.23,962.34l18.32-15.3
			l5.35,4.48c2.72,5.35,5.51,10.49,8.36,15.36l-13.71,11.44l-18.32-15.3V962.34z M1196.23,973.68l11.93,9.98l-11.93,9.98V973.68z
			 M1196.23,1004.3l18.32-15.32l18.73,15.65l-18.73,15.65l-18.32-15.3V1004.3z M1196.23,1015.63l11.93,9.98l-9.87,8.25l-2.07,1.73
			V1015.63z M1176.57,887.23c4.56-10.14,8.02-19.19,10.49-26.14v76.84c-3.34,4.04-6.82,7.98-10.49,11.74c0,0,0,0,0,0V887.23z
			 M1151.98,931.75c3.5-5.13,6.9-10.57,10.2-16.27c4.21-7.28,7.94-14.51,11.22-21.37v58.77c-6.61,6.51-13.73,12.5-21.42,17.76
			V931.75z M1127.37,961.51C1127.37,961.51,1127.37,961.51,1127.37,961.51c7.47-7.31,14.63-15.73,21.43-25.22c0,0,0,0,0,0v36.46
			c-6.71,4.34-13.84,8.12-21.43,11.19V961.51z M1102.77,980.93c7.37-4.51,14.52-9.98,21.42-16.4v20.65
			c-6.77,2.56-13.9,4.54-21.42,5.88V980.93z M1078.16,992.16c7.31-2.24,14.46-5.37,21.43-9.36v8.79
			c-6.83,1.05-13.97,1.56-21.43,1.45V992.16z M1028.97,984.99c7.01,3.05,14.14,5.5,21.42,7.34v0.6c-5.82-0.08-13.06-0.54-21.42-1.64
			V984.99z M1004.36,971.49c6.98,4.67,14.12,8.71,21.43,12.07v7.28c-6.58-0.97-13.78-2.34-21.43-4.24V971.49z M979.77,951.72
			c6.94,6.59,14.09,12.46,21.42,17.59v16.48c-6.83-1.8-14.01-4-21.42-6.72V951.72z M955.16,924.43
			c6.61,8.48,13.44,16.25,20.46,23.28c0.32,0.32,0.65,0.64,0.97,0.95v29.2c-6.98-2.67-14.16-5.8-21.43-9.45V924.43z M930.56,887.76
			c6.83,11.74,13.98,22.58,21.42,32.49v46.54c-7.09-3.69-14.25-7.86-21.42-12.62V887.76z M905.96,838.46
			c2.48,5.84,5.13,11.73,7.94,17.62c4.34,9.12,8.83,17.83,13.49,26.12v69.85c-2.08-1.41-4.16-2.89-6.24-4.42
			c-5.22-3.83-10.29-7.84-15.18-12.05V838.46z M883.64,777.14c4.85,15.87,11.15,34.4,19.13,53.77c0,0.01,0.01,0.01,0.01,0.02v101.85
			c0,0-0.01,0-0.01-0.01c-6.72-5.99-13.09-12.36-19.13-19.1V777.14z M869.44,983.66l-20.02-16.73l20.02-16.71V983.66z
			 M869.44,918.61l-20.02-16.73l12.66-10.57c2.37,3.42,4.83,6.77,7.36,10.04V918.61z M839.52,780.05l2.91,2.43v0
			c-5.64,9.87-11.31,19.15-16.97,27.85c-1.6-4.83-3.13-9.72-4.56-14.73L839.52,780.05z M817.26,782.13
			c-2.08-8.23-3.94-16.68-5.59-25.36l17.97,15.01L817.26,782.13z M844.91,784.55l23.67,19.77l-29.06,24.26l-10.87-9.09
			c-0.65-1.76-1.27-3.54-1.89-5.32C832.8,804.93,838.87,795.08,844.91,784.55z M839.52,845.1l29.06,24.26l-11.25,9.39
			c-6.61-10.5-12.65-21.64-18.08-33.43L839.52,845.1z M869.44,896.35c-1.72-2.29-3.4-4.61-5.04-6.98l5.04-4.21V896.35z
			 M869.44,853.55l-20.02-16.71l20.02-16.71V853.55z M869.44,788.5l-18.24-15.24v0c0.98-1.8,1.97-3.59,2.94-5.42l15.3-12.77V788.5z
			 M869.44,738.55l-1.02,0.84c0.35-0.71,0.68-1.43,1.02-2.15V738.55z M811.11,704.33h58.33v17.64h-58.33V704.33z M811.11,734.64
			h56.04c-1.54,3.27-3.07,6.5-4.62,9.68l0,0l-23.01,19.21l-28.41-23.74V734.64z M811.11,769.42c1.1,5.04,2.27,10.01,3.54,14.89
			l-3.54,2.96V769.42z M811.11,803.79l7.23-6.04c1.57,5.37,3.24,10.65,5,15.81c-0.21,0.32-0.43,0.65-0.64,0.97l-11.6-9.68V803.79z
			 M811.11,821.38l4.42,3.69c-1.48,2.11-2.94,4.18-4.42,6.21c0,0,0,0,0,0V821.38z M811.11,836.68
			C811.11,836.68,811.11,836.68,811.11,836.68c2.27-3.1,4.58-6.29,6.86-9.58l11.66,9.74l-18.53,15.48V836.68z M811.11,868.83
			l25.76-21.51c2.05,4.42,4.19,8.74,6.4,12.96c3.69,7.04,7.59,13.84,11.73,20.4l-15.48,12.93l-28.41-23.72V868.83z M811.11,886.42
			l18.53,15.46l-18.53,15.48V886.42z M811.11,933.88l28.41-23.74l29.06,24.26l-29.06,24.26l-28.41-23.72V933.88z M811.11,951.47
			l18.53,15.46l-18.53,15.48V951.47z M811.11,998.93l28.41-23.74l29.12,24.33l-24.88,21.86l-4.24,3.73l-4.23-3.7l-24.18-21.26
			V998.93z M711.75,927.84C711.75,927.84,711.75,927.84,711.75,927.84c-14.37,8.84-26.25,14.09-34.35,17.13l-0.39-43.08
			c12.59-10.31,24.17-21.76,34.73-33.82l0.01-0.01V927.84z M746.03,902.85c-3.99,3.38-7.83,6.47-11.5,9.28
			c-6.89,5.27-13.45,9.82-19.6,13.72v-61.46c11.37-13.31,21.56-27.26,30.61-41.19c0,0,0-0.01,0.01-0.01L746.03,902.85
			C746.04,902.85,746.04,902.85,746.03,902.85z M748.69,818.26c24.24-38.35,39.95-75.84,48.21-98.16v129.85
			c-16.93,21.17-33.2,37.59-47.7,50.18L748.69,818.26z"/>
	</g>
	<g>
		<path class="st2" d="M591.11,1111.51v1.75h-1.54c-5.2,0-12.39,2.95-15.16,10.23l-29.45,94.41c0,0-3.56,10.93-3.09,19.47h-1.66
			l-38.25-84.65l-27.68,65.17c0,0-4.13,10.23-4.31,19.47h-1.66l-41.96-113.98c-3.21-7.22-9.88-10.14-15.07-10.14h-1.4v-1.75h53.48
			v1.74h-1.54c-4.53,0-9.07,3.96-6.78,10.97l21.57,60.83l31.81-76.28l1.63,0.06l34.88,77.01l17.49-61.67
			c1.93-7.02-1.79-10.92-6.66-10.92h-1.54v-1.74H591.11z"/>
		<path class="st2" d="M688.71,1234.23h-53.26l0.03-1.75h2.22c6.14,0,11.12-4.91,11.23-11.02v-97.25
			c-0.15-6.07-5.12-10.95-11.23-10.95h-2.22l-0.03-1.75h53.25l-0.03,1.75h-2.22c-6.1,0-11.06,4.86-11.23,10.92v97.29
			c0.11,6.11,5.09,11.02,11.23,11.02h2.22L688.71,1234.23z"/>
		<path class="st2" d="M884.39,1111.5l-0.03,1.75h-3.24c-5.86,0-10.63,4.66-10.82,10.48v90.58c0,13.21,2.02,22.37,2.02,22.37h-1.59
			l-88.59-84.35v69.57c0.14,5.86,4.93,10.57,10.82,10.57h3.24l0.03,1.75h-53.14l0.03-1.75h3.24c5.91,0,10.71-4.74,10.82-10.62
			v-91.07c0-13.03-2.04-21.9-2.04-21.9h1.73l88.45,84.32v-69.32c-0.11-5.88-4.91-10.63-10.82-10.63h-3.23l-0.03-1.75L884.39,1111.5z
			"/>
		<path class="st2" d="M999.7,1111.52c41.42,0,67.22,23.5,67.22,61.41c0,37.84-25.8,61.31-67.22,61.31h-63.6l0.03-1.75h2.22
			c6.13,0,11.1-4.91,11.23-11v-98.2c0-5.64-5.37-10.03-11.17-10.03h-2.22l-0.03-1.74L999.7,1111.52z M975.88,1226.77h21.68
			c25.13,0,40.77-20.63,40.77-53.84c0-33.32-15.71-54.01-40.77-54.01h-21.68L975.88,1226.77z"/>
		<path class="st2" d="M1193.44,1171.31c10.42,6.77,16.48,15.96,15.74,29.07c-1.06,22.84-18.28,36.3-46.32,36.3
			c-15.72,0-30.46-4.05-36.85-10.64c-2.9-7.33-0.43-22.11,4.15-29.76h1.54c-1.41,18.28,12.03,33.35,33.06,33.01
			c15.25-0.28,24.24-8.73,24.23-19.71c0.01-7.11-4.59-11.85-14.02-18.11l-30.55-20.27c-12.06-8.01-18.06-18.68-16.78-31.46
			c1.49-18.15,14.79-30.69,36.9-30.69c5.64,0,15.87,0.78,23.88,1.8h11.01l-2.3,25.77h-1.69c-0.03-12.17-9.89-20.18-24.72-20.18
			c-13.8,0-22.52,7.45-22.95,16.86c-0.43,6.9,4.87,11.53,12.22,16.3L1193.44,1171.31z"/>
		<path class="st2" d="M1405.88,1172.87c0,39.39-26.86,63.81-68.97,63.81c-42.11,0-68.97-24.42-68.97-63.81
			c0-39.4,26.87-63.82,68.97-63.82C1379.01,1109.05,1405.88,1133.47,1405.88,1172.87z M1377.11,1172.87
			c0-34.82-15.49-56.44-40.21-56.44c-24.72,0-40.21,21.62-40.21,56.44c0,34.82,15.49,56.44,40.21,56.44
			C1361.62,1229.31,1377.11,1207.69,1377.11,1172.87z"/>
		<path class="st2" d="M1519.89,1111.5c21.25,0,41.7,8.64,41.7,33.06c0,14.76-8.8,31.33-28.7,33.31
			c7.41,2.43,13.99,9.39,17.88,15.53c0.53,0.85,11.05,17.53,17.65,25.76c7.56,9.62,12.56,13.16,21.69,13.29v1.76h-17.07
			c-19.18,0-33.13-4.15-41.18-18.17c-4.26-7.43-12.17-24.79-14.61-30.03c-3.4-7.32-7.32-11.03-11.87-11.81v-1.67h5.35
			c9.43-0.1,19.01-4.91,22.14-20.27c0.41-2.14,0.8-4.96,0.65-8.49c-0.7-16.77-9.16-24.27-20.68-24.55c-4.65-0.2-11.1-0.01-13.3-0.06
			v102.27c0.12,6.11,5.09,11.02,11.26,11.02h2.18l0.03,1.75h-53.31l0.03-1.75h2.22c6.11,0,11.07-4.87,11.22-10.94v-97.26
			c-0.12-6.11-5.09-11.02-11.21-11.02h-2.24l-0.03-1.74L1519.89,1111.5z"/>
	</g>
	<g>
		<path class="st1" d="M670.28,1303.95l0.54,9.55c-2.49,4.11-7.22,7.42-15.59,7.42c-13.63-0.06-22.51-7.59-22.51-20.25
			c0-12.41,8.58-20.14,22.67-20.14c5.91,0,10.65,1.37,13.8,3.01l0.11,9.52h-0.46c-2.02-7.29-6.79-10.19-12.89-10.19
			c-8.8,0-14.18,6.78-14.18,17.68c0,10.99,5.2,17.82,13.46,18.04c8.54-0.01,12.87-3.73,14.6-14.64H670.28z"/>
		<path class="st1" d="M767.59,1300.72c0,12.47-8.5,20.2-21.83,20.2c-13.33,0-21.83-7.73-21.83-20.2c0-12.47,8.5-20.2,21.83-20.2
			C759.09,1280.52,767.59,1288.25,767.59,1300.72z M758.48,1300.72c0-11.02-4.9-17.87-12.73-17.87s-12.73,6.85-12.73,17.87
			c0,11.02,4.9,17.86,12.73,17.86S758.48,1311.74,758.48,1300.72z"/>
		<path class="st1" d="M839,1281.3c13.11,0,21.28,7.44,21.28,19.43c0,11.98-8.17,19.41-21.28,19.41h-20.13l0.01-0.55h0.7
			c1.94,0,3.51-1.55,3.55-3.48v-31.09c0-1.78-1.7-3.17-3.53-3.17h-0.7l-0.01-0.55L839,1281.3z M831.46,1317.79h6.86
			c7.95,0,12.9-6.53,12.9-17.04c0-10.55-4.97-17.1-12.9-17.1h-6.86V1317.79z"/>
		<path class="st1" d="M940.15,1320.14h-28.73l0.01-0.55h0.7c1.94,0,3.52-1.56,3.56-3.49v-30.94c-0.13-1.85-1.67-3.31-3.55-3.31
			h-0.7l-0.01-0.55h21.27c2.39-0.02,5.59-0.58,6.62-1.01v9.7l-0.56-0.01v-0.65c0.01-3.34-2.09-5.52-5.42-5.66h-9.34v16.15h7.36
			c2.72-0.05,4.71-2.05,4.71-4.75v-0.48l0.54-0.01v12.82l-0.54-0.01v-0.48c0.01-2.68-1.95-4.67-4.64-4.75h-7.43v15.62h7.29
			c5.54,0,9.14-3.44,10.86-8.95h0.55L940.15,1320.14z"/>
		<path class="st1" d="M1093.49,1303.95l0.54,9.55c-2.49,4.11-7.22,7.42-15.59,7.42c-13.63-0.06-22.51-7.59-22.51-20.25
			c0-12.41,8.58-20.14,22.67-20.14c5.91,0,10.65,1.37,13.8,3.01l0.11,9.52h-0.46c-2.02-7.29-6.79-10.19-12.89-10.19
			c-8.8,0-14.18,6.78-14.18,17.68c0,10.99,5.2,17.82,13.46,18.04c8.54-0.01,12.87-3.73,14.6-14.64H1093.49z"/>
		<path class="st1" d="M1180.6,1316.37c1.2,2.27,3.1,3.22,4.74,3.22h0.47v0.55h-17.68v-0.55h0.49c1.43,0,2.99-1.26,2.14-3.48
			l-2.73-6.86H1155l-2.84,6.86c-0.91,2.22,0.69,3.48,2.12,3.48h0.49v0.55h-11.9v-0.55h0.5c1.58,0,3.49-0.92,4.67-3.13l12.83-29.01
			c0.4-0.84,2.6-5.65,2.73-7.27h0.5L1180.6,1316.37z M1167.09,1306.92l-5.43-13.63l-5.69,13.63H1167.09z"/>
		<path class="st1" d="M1280.4,1316.11c0.35,2.19,2.06,3.48,4.04,3.48h0.88v0.55h-16.67v-0.52h0.87c1.19,0,2.3-1.17,2.16-2.37
			l-2.2-20.11l-10.4,17.98c0,0-2.07,3.44-2.14,6.13h-0.52l-14.28-23.97l-2.19,19.97c-0.13,1.19,0.97,2.37,2.16,2.37h0.87v0.53
			h-11.61v-0.55h0.88c2,0,3.77-1.28,4.06-3.48l4.6-35.59h0.51l17.22,28.31l16.51-28.3h0.51L1280.4,1316.11z"/>
		<path class="st1" d="M1353.49,1281.3c9.49,0,13.61,4.57,13.8,10.63c0.35,9.57-9.91,14.91-17.83,9.71l-0.01-0.53
			c-0.03-0.04,6.69,0.67,8.61-6.33c0.27-0.98,0.39-2.28,0.34-3.33c-0.16-4.73-2.7-7.82-7.14-7.82h-3.7v32.46
			c0.03,1.93,1.61,3.49,3.55,3.49h0.7l0.01,0.56h-16.86l0.01-0.56h0.7c1.94,0,3.52-1.56,3.56-3.49v-31.05c0-1.87-1.69-3.2-3.54-3.2
			h-0.7l-0.01-0.55H1353.49z"/>
	</g>
	<polygon class="st2" points="601.11,1311.19 409.88,1300.1 601.13,1289.25 	"/>
	<polygon class="st2" points="1398.89,1311.19 1590.12,1300.1 1398.87,1289.25 	"/>
</g>
</svg>
