<?xml version="1.0" encoding="utf-8"?>
<!-- Generator: Adobe Illustrator 25.0.0, SVG Export Plug-In . SVG Version: 6.00 Build 0)  -->
<svg version="1.1" id="Layer_1" xmlns="http://www.w3.org/2000/svg" xmlns:xlink="http://www.w3.org/1999/xlink" x="0px" y="0px"
	 viewBox="0 0 2000 2000" style="enable-background:new 0 0 2000 2000;" xml:space="preserve">
<style type="text/css">
	.st0{display:none;fill:#FF0000;}
	.st1{fill:#9E005D;}
	.st2{fill:#1B1464;}
</style>
<rect class="st0" width="2000" height="2000"/>
<g>
	<g>
		<path class="st1" d="M854.31,886.02c-17.36,14.13-36.43,25.95-56.43,35.46c-1.04,0.48-2.08,0.93-3.12,1.39l115.24-18.72
			l4.04-84.09l0-0.04c-4.05,6.12-8.31,12.07-12.77,17.86C887.49,855.74,871.69,871.93,854.31,886.02z"/>
		<path class="st1" d="M987.63,833.39c-9.43-11.36-17.65-23.8-24.49-37.03l4.72,98.38l79.43-12.9c-8.66-4.62-17.05-9.78-25.03-15.61
			C1009.57,856.74,997.82,845.76,987.63,833.39z"/>
		<path class="st1" d="M1100.27,841.86c-7.84,9.5-16.89,17.96-26.66,25.28c-7.42,5.42-15.26,10.18-23.41,14.24l65.69-10.67
			l2.71-56.35c-0.01,0.01-0.01,0.02-0.02,0.03C1113.43,824.21,1107.28,833.39,1100.27,841.86z"/>
		<path class="st1" d="M1218.01,843.58c-10.88-5.35-21.21-11.95-30.6-19.83c-9.39-7.84-17.89-16.79-25.32-26.66
			c-2.42-3.21-4.7-6.53-6.87-9.91l3.67,76.54l77.81-12.64C1230.35,848.97,1224.1,846.5,1218.01,843.58z"/>
		<path class="st1" d="M778.35,925.53c5.77-2.78,11.45-5.73,17.01-8.89c18.78-10.92,36.24-23.89,51.75-38.8
			c15.54-14.88,29.25-31.51,40.83-49.43c5.79-8.95,11.13-18.18,15.8-27.68c2.37-4.74,4.54-9.55,6.58-14.39
			c1.98-4.74,3.96-9.94,5.27-14.29l0.89-2.94l0.17-3.79l1.19-0.71l0.01-0.03l0.04,0l20.67-12.56l6.8-4.11l0.62-0.38l13.85-8.39
			l0.55-0.35l0.31,6.7c0.34,3.07,0.97,6.7,1.62,10.05c0.76,3.66,1.59,7.36,2.59,11.02c1.93,7.32,4.39,14.58,7.22,21.66
			c5.6,14.2,12.88,27.84,21.69,40.45c8.81,12.68,19.24,24.21,30.91,34.54c7.59,6.58,15.74,12.55,24.27,17.99
			c8.05-4.82,15.67-10.29,22.7-16.4c8.98-7.94,17.03-16.82,23.8-26.6c6.8-9.71,12.4-20.2,16.72-31.15
			c2.18-5.46,4.08-11.05,5.56-16.68c0.76-2.83,1.42-5.66,2-8.5c0.17-0.86,0.34-1.76,0.48-2.66c0.01-0.05,0.01-0.09,0.02-0.13
			l0.05-0.97l0.14-0.1c0,0,0,0,0,0l1.26-0.94l13.62-10.11l13.61-10.09l4.63-3.42l0.21,4.28l0.97,3.28c0.66,2.38,1.73,5.22,2.76,7.84
			c1.07,2.66,2.25,5.32,3.49,7.91c2.49,5.25,5.32,10.33,8.43,15.27c6.22,9.88,13.57,19.06,21.97,27.32
			c8.36,8.29,17.82,15.51,28.01,21.62c5.62,3.29,11.48,6.21,17.49,8.8c-12.01-120.26-113.49-214.17-236.92-214.17
			c-131.51,0-238.12,106.61-238.12,238.12c0,18.41,2.16,36.31,6.11,53.52L778.35,925.53z"/>
		<g>
			<path class="st2" d="M906.6,974.78l0.76-15.92l-113.85,33.37c3.01,5.24,6.18,10.38,9.57,15.36L906.6,974.78z"/>
			<path class="st2" d="M1160.59,899.21l1.95,40.7c-19,6.04-29.53,12.85-50.95,19.89l2.13-44.33l-142.49,49.44l1.82,37.93
				c-40.51,13.78-68.94,23.62-68.94,23.62l1.87-38.92l-93.74,32.52c43.58,55.82,111.45,91.75,187.75,91.75
				c131.51,0,238.12-106.61,238.12-238.12c0-0.46-0.03-0.91-0.04-1.37L1160.59,899.21z"/>
			<polygon class="st2" points="1114.56,898.12 970.07,940.48 970.74,954.45 1114.04,909.03 			"/>
			<path class="st2" d="M1237.82,861.99l-77.92,22.84l0.46,9.52l77.66-24.61C1237.97,867.15,1237.94,864.56,1237.82,861.99z"/>
		</g>
	</g>
	<g>
		<g>
			<g>
				<path class="st1" d="M492.13,1186.68c-1.7-5.25-3.26-8.65-5.25-10.07c-1.56-0.99-4.4-1.28-5.67-1.28
					c-1.42,0-2.27-0.14-2.27-1.28c0-0.99,1.13-1.28,3.12-1.28c7.37,0,15.17,0.42,16.45,0.42s7.52-0.42,15.74-0.42
					c1.98,0,2.98,0.42,2.98,1.28c0,1.14-1.13,1.28-2.55,1.28c-1.14,0-2.55,0-3.54,0.57c-1.28,0.57-1.56,1.56-1.56,3.12
					c0,1.84,1.42,6.66,3.12,13.05c2.41,9.36,15.6,52.33,18.15,60.27h0.42l27.51-73.88c1.42-3.97,2.41-5.1,3.54-5.1
					c1.56,0,2.27,2.13,4.11,6.66l29.5,71.33h0.42c2.55-9.5,13.9-46.94,18.86-63.53c0.99-3.26,1.42-6.24,1.42-8.22
					c0-2.27-1.28-4.26-6.81-4.26c-1.42,0-2.41-0.42-2.41-1.28c0-0.99,1.14-1.28,3.26-1.28c7.52,0,13.47,0.42,14.75,0.42
					c0.99,0,7.09-0.42,11.77-0.42c1.56,0,2.55,0.28,2.55,1.13c0,0.99-0.71,1.42-1.99,1.42c-1.42,0-3.4,0.14-4.96,0.71
					c-3.4,1.28-4.96,6.95-7.94,15.03c-6.52,17.87-21.41,62.96-28.36,84.24c-1.56,4.96-2.27,6.67-4.11,6.67
					c-1.42,0-2.27-1.7-4.4-6.95l-29.5-71.05h-0.28c-2.69,7.23-21.56,57.44-27.65,70.48c-2.7,5.81-3.4,7.52-5.11,7.52
					c-1.42,0-1.98-1.56-3.26-5.25L492.13,1186.68z"/>
				<path class="st1" d="M695.48,1213.9c0-21.56,0-25.53-0.28-30.06c-0.28-4.82-1.7-7.23-4.82-7.94c-1.56-0.43-3.4-0.57-5.1-0.57
					c-1.42,0-2.27-0.28-2.27-1.42c0-0.85,1.14-1.13,3.4-1.13c5.39,0,14.32,0.42,18.44,0.42c3.55,0,11.91-0.42,17.3-0.42
					c1.84,0,2.98,0.28,2.98,1.13c0,1.14-0.85,1.42-2.27,1.42c-1.42,0-2.55,0.14-4.26,0.42c-3.83,0.71-4.96,3.12-5.25,8.08
					c-0.28,4.54-0.28,8.51-0.28,30.06v24.96c0,13.76,0,24.96,0.57,31.06c0.43,3.83,1.42,6.38,5.67,6.95
					c1.99,0.28,5.11,0.57,7.23,0.57c1.56,0,2.27,0.43,2.27,1.14c0,0.99-1.14,1.42-2.7,1.42c-9.36,0-18.29-0.42-22.12-0.42
					c-3.26,0-12.2,0.42-17.87,0.42c-1.84,0-2.84-0.42-2.84-1.42c0-0.71,0.57-1.14,2.27-1.14c2.13,0,3.83-0.28,5.1-0.57
					c2.84-0.57,3.69-2.98,4.11-7.09c0.71-5.96,0.71-17.16,0.71-30.92V1213.9z"/>
				<path class="st1" d="M804.38,1260.7c0.28,11.06,2.13,14.75,4.96,15.74c2.41,0.85,5.1,0.99,7.37,0.99c1.56,0,2.41,0.28,2.41,1.14
					c0,1.13-1.28,1.42-3.26,1.42c-9.22,0-14.89-0.42-17.58-0.42c-1.28,0-7.94,0.42-15.32,0.42c-1.84,0-3.12-0.14-3.12-1.42
					c0-0.85,0.85-1.14,2.27-1.14c1.84,0,4.4-0.14,6.38-0.71c3.69-1.14,4.26-5.25,4.4-17.58l1.28-83.95c0-2.84,0.42-4.82,1.84-4.82
					c1.56,0,2.84,1.84,5.25,4.4c1.7,1.84,23.26,24.96,43.96,45.52c9.64,9.64,28.79,30.06,31.2,32.33h0.71l-1.42-63.68
					c-0.14-8.65-1.42-11.34-4.82-12.76c-2.13-0.85-5.53-0.85-7.52-0.85c-1.7,0-2.27-0.42-2.27-1.28c0-1.14,1.56-1.28,3.69-1.28
					c7.37,0,14.18,0.42,17.16,0.42c1.56,0,6.95-0.42,13.9-0.42c1.84,0,3.26,0.14,3.26,1.28c0,0.85-0.85,1.28-2.55,1.28
					c-1.42,0-2.55,0-4.25,0.42c-3.97,1.14-5.11,4.11-5.25,12.06l-1.56,89.48c0,3.12-0.57,4.4-1.84,4.4c-1.56,0-3.26-1.56-4.82-3.12
					c-8.94-8.51-27.09-27.09-41.84-41.69c-15.46-15.32-31.2-33.04-33.75-35.74h-0.42L804.38,1260.7z"/>
				<path class="st1" d="M967.6,1213.9c0-21.56,0-25.53-0.28-30.06c-0.28-4.82-1.42-7.09-6.1-8.08c-1.14-0.28-3.54-0.42-5.53-0.42
					c-1.56,0-2.41-0.28-2.41-1.28s0.99-1.28,3.12-1.28c7.52,0,16.45,0.42,20.42,0.42c4.4,0,13.33-0.42,21.84-0.42
					c17.73,0,41.41,0,56.87,16.17c7.09,7.38,13.76,19.15,13.76,36.02c0,17.87-7.52,31.48-15.46,39.56
					c-6.52,6.66-21.27,16.73-47.51,16.73c-5.1,0-10.92-0.42-16.31-0.85c-5.39-0.43-10.35-0.85-13.9-0.85c-1.56,0-4.68,0-8.08,0.14
					c-3.26,0-6.95,0.28-9.79,0.28c-1.84,0-2.84-0.42-2.84-1.42c0-0.71,0.57-1.14,2.27-1.14c2.13,0,3.83-0.28,5.1-0.57
					c2.84-0.57,3.54-3.69,4.11-7.8c0.71-5.96,0.71-17.16,0.71-30.2V1213.9z M985.32,1229.5c0,15.03,0.14,25.95,0.28,28.65
					c0.14,3.54,0.42,9.22,1.56,10.78c1.84,2.7,7.37,5.67,18.58,5.67c14.46,0,24.11-2.84,32.62-10.21
					c9.08-7.8,11.91-20.71,11.91-35.31c0-18.01-7.52-29.64-13.61-35.45c-13.05-12.48-29.21-14.18-40.28-14.18
					c-2.84,0-8.08,0.42-9.22,0.99c-1.28,0.57-1.7,1.28-1.7,2.84c-0.14,4.82-0.14,17.16-0.14,28.36V1229.5z"/>
				<path class="st1" d="M1129.39,1278.29c-2.27-0.99-2.69-1.7-2.69-4.82c0-7.8,0.57-16.31,0.71-18.58c0.14-2.13,0.57-3.69,1.7-3.69
					c1.28,0,1.42,1.28,1.42,2.41c0,1.84,0.57,4.82,1.28,7.23c3.12,10.5,11.49,14.32,20.28,14.32c12.76,0,19-8.65,19-16.17
					c0-6.95-2.13-13.47-13.9-22.69l-6.52-5.11c-15.6-12.19-20.99-22.12-20.99-33.61c0-15.6,13.05-26.8,32.76-26.8
					c9.22,0,15.17,1.42,18.86,2.41c1.28,0.28,1.99,0.71,1.99,1.7c0,1.84-0.57,5.96-0.57,17.02c0,3.12-0.43,4.26-1.56,4.26
					c-0.99,0-1.42-0.85-1.42-2.55c0-1.28-0.71-5.67-3.69-9.36c-2.13-2.69-6.24-6.95-15.46-6.95c-10.49,0-16.88,6.1-16.88,14.61
					c0,6.52,3.26,11.49,15.03,20.42l3.97,2.98c17.16,12.9,23.26,22.69,23.26,36.16c0,8.23-3.12,18.01-13.33,24.68
					c-7.09,4.54-15.03,5.82-22.55,5.82C1141.87,1281.97,1135.49,1280.98,1129.39,1278.29z"/>
				<path class="st1" d="M1241.13,1226.38c0-24.25,16.02-55.59,58.57-55.59c35.31,0,57.29,20.56,57.29,53.04
					c0,32.48-22.69,58.14-58.71,58.14C1257.58,1281.97,1241.13,1251.48,1241.13,1226.38z M1337.14,1229.08
					c0-31.77-18.3-51.48-41.55-51.48c-16.31,0-34.89,9.08-34.89,44.39c0,29.5,16.31,52.9,43.54,52.9
					C1314.16,1274.88,1337.14,1270.06,1337.14,1229.08z"/>
				<path class="st1" d="M1423.49,1213.9c0-21.56,0-25.53-0.28-30.06c-0.28-4.82-1.42-7.09-6.1-8.08c-1.14-0.28-3.54-0.42-5.53-0.42
					c-1.56,0-2.41-0.28-2.41-1.28s0.99-1.28,3.12-1.28c7.52,0,16.45,0.42,19.43,0.42c4.82,0,15.6-0.42,19.99-0.42
					c8.94,0,18.44,0.85,26.09,6.1c3.97,2.7,9.64,9.93,9.64,19.43c0,10.5-4.4,20.14-18.72,31.77c12.62,15.88,22.41,28.5,30.77,37.3
					c7.94,8.22,13.76,9.22,15.88,9.64c1.56,0.28,2.84,0.42,3.97,0.42c1.13,0,1.7,0.43,1.7,1.14c0,1.13-0.99,1.42-2.7,1.42h-13.47
					c-7.94,0-11.49-0.71-15.17-2.69c-6.1-3.26-11.49-9.93-19.43-20.85c-5.67-7.8-12.2-17.44-14.04-19.57
					c-0.71-0.85-1.56-0.99-2.55-0.99l-12.34-0.28c-0.71,0-1.13,0.28-1.13,1.13v1.98c0,13.19,0,24.39,0.71,30.35
					c0.42,4.11,1.28,7.23,5.53,7.8c2.13,0.28,5.25,0.57,6.95,0.57c1.14,0,1.7,0.43,1.7,1.14c0,0.99-0.99,1.42-2.84,1.42
					c-8.22,0-18.72-0.42-20.85-0.42c-2.7,0-11.63,0.42-17.3,0.42c-1.84,0-2.84-0.42-2.84-1.42c0-0.71,0.57-1.14,2.27-1.14
					c2.13,0,3.83-0.28,5.1-0.57c2.84-0.57,3.54-3.69,4.11-7.8c0.71-5.96,0.71-17.16,0.71-30.2V1213.9z M1440.23,1225.11
					c0,1.56,0.28,2.13,1.28,2.55c2.98,0.99,7.23,1.42,10.78,1.42c5.67,0,7.52-0.57,10.07-2.41c4.26-3.12,8.37-9.64,8.37-21.27
					c0-20.14-13.33-25.95-21.7-25.95c-3.54,0-6.1,0.14-7.52,0.57c-0.99,0.28-1.28,0.85-1.28,1.98V1225.11z"/>
			</g>
			<g>
				<path class="st2" d="M679.18,1358.3c-5.5-4.83-6.96-11.11-6.96-16.55c0-3.82,1.18-10.44,6.57-15.37
					c4.04-3.7,9.37-5.95,17.73-5.95c3.48,0,5.55,0.23,8.13,0.56c2.13,0.28,3.93,0.79,5.61,0.95c0.62,0.06,0.84,0.34,0.84,0.67
					c0,0.45-0.17,1.12-0.28,3.09c-0.11,1.85-0.06,4.94-0.17,6.06c-0.06,0.84-0.17,1.29-0.67,1.29c-0.45,0-0.56-0.45-0.56-1.23
					c-0.06-1.74-0.78-3.7-2.19-5.16c-1.85-1.96-6.23-3.48-11.39-3.48c-4.88,0-8.08,1.23-10.55,3.48c-4.1,3.76-5.16,9.09-5.16,14.53
					c0,13.35,10.15,19.98,17.67,19.98c4.99,0,8.02-0.56,10.27-3.14c0.95-1.07,1.68-2.69,1.91-3.7c0.17-0.9,0.28-1.12,0.73-1.12
					c0.39,0,0.51,0.39,0.51,0.84c0,0.67-0.67,5.56-1.24,7.46c-0.28,0.95-0.5,1.24-1.46,1.63c-2.24,0.9-6.51,1.29-10.1,1.29
					C690.73,1364.42,684.28,1362.73,679.18,1358.3z"/>
				<path class="st2" d="M751.9,1342.42c0-9.6,6.34-22,23.18-22c13.97,0,22.67,8.14,22.67,20.99c0,12.85-8.98,23.01-23.23,23.01
					C758.41,1364.42,751.9,1352.35,751.9,1342.42z M789.89,1343.49c0-12.57-7.24-20.37-16.44-20.37c-6.45,0-13.8,3.59-13.8,17.56
					c0,11.67,6.45,20.93,17.23,20.93C780.8,1361.61,789.89,1359.7,789.89,1343.49z"/>
				<path class="st2" d="M844.26,1337.48c0-8.53,0-10.1-0.11-11.9c-0.11-1.91-0.56-2.8-2.41-3.2c-0.45-0.11-1.4-0.17-2.19-0.17
					c-0.62,0-0.95-0.11-0.95-0.51c0-0.39,0.39-0.5,1.23-0.5c2.97,0,6.51,0.17,8.08,0.17c1.74,0,5.28-0.17,8.64-0.17
					c7.01,0,16.38,0,22.5,6.4c2.81,2.92,5.44,7.58,5.44,14.25c0,7.07-2.97,12.46-6.12,15.66c-2.58,2.64-8.42,6.62-18.8,6.62
					c-2.02,0-4.32-0.17-6.45-0.34c-2.13-0.17-4.1-0.34-5.5-0.34c-0.62,0-1.85,0-3.2,0.06c-1.29,0-2.75,0.11-3.87,0.11
					c-0.73,0-1.12-0.17-1.12-0.56c0-0.28,0.23-0.45,0.9-0.45c0.84,0,1.51-0.11,2.02-0.22c1.12-0.23,1.4-1.46,1.63-3.09
					c0.28-2.36,0.28-6.79,0.28-11.95V1337.48z M851.27,1343.65c0,5.95,0.06,10.27,0.11,11.33c0.06,1.4,0.17,3.65,0.62,4.27
					c0.73,1.07,2.92,2.24,7.35,2.24c5.72,0,9.54-1.12,12.91-4.04c3.59-3.09,4.71-8.19,4.71-13.97c0-7.13-2.97-11.73-5.39-14.03
					c-5.16-4.94-11.56-5.61-15.94-5.61c-1.12,0-3.2,0.17-3.65,0.39c-0.51,0.23-0.67,0.5-0.67,1.12c-0.06,1.91-0.06,6.79-0.06,11.22
					V1343.65z"/>
				<path class="st2" d="M931.01,1337.48c0-8.53,0-10.1-0.11-11.9c-0.11-1.91-0.56-2.8-2.41-3.2c-0.45-0.11-1.4-0.17-2.19-0.17
					c-0.62,0-0.95-0.11-0.95-0.51c0-0.39,0.39-0.5,1.23-0.5c1.52,0,3.14,0.06,4.55,0.06c1.46,0.06,2.75,0.11,3.53,0.11
					c1.8,0,12.96,0,14.03-0.06c1.07-0.11,1.96-0.23,2.41-0.34c0.28-0.06,0.62-0.22,0.9-0.22s0.34,0.22,0.34,0.5
					c0,0.39-0.28,1.07-0.45,3.65c-0.06,0.56-0.17,3.03-0.28,3.7c-0.06,0.28-0.17,0.62-0.56,0.62c-0.39,0-0.51-0.28-0.51-0.79
					c0-0.39-0.06-1.35-0.34-2.02c-0.39-1.01-0.95-1.68-3.76-2.02c-0.95-0.11-6.84-0.22-7.97-0.22c-0.28,0-0.39,0.17-0.39,0.56v14.2
					c0,0.39,0.06,0.62,0.39,0.62c1.24,0,7.69,0,8.98-0.11c1.35-0.11,2.19-0.28,2.69-0.84c0.39-0.45,0.62-0.73,0.9-0.73
					c0.22,0,0.39,0.11,0.39,0.45c0,0.34-0.22,1.24-0.45,4.1c-0.06,1.12-0.22,3.37-0.22,3.76c0,0.45,0,1.07-0.51,1.07
					c-0.39,0-0.5-0.22-0.5-0.5c-0.06-0.56-0.06-1.29-0.23-2.02c-0.28-1.12-1.07-1.96-3.14-2.19c-1.07-0.11-6.62-0.17-7.97-0.17
					c-0.28,0-0.34,0.23-0.34,0.56v4.43c0,1.91-0.06,7.07,0,8.7c0.11,3.87,1.01,4.71,6.73,4.71c1.46,0,3.82,0,5.28-0.67
					c1.46-0.67,2.13-1.85,2.52-4.15c0.11-0.62,0.23-0.84,0.62-0.84c0.45,0,0.45,0.45,0.45,1.01c0,1.29-0.45,5.11-0.73,6.23
					c-0.39,1.46-0.9,1.46-3.03,1.46c-4.21,0-7.29-0.11-9.71-0.17c-2.41-0.11-4.15-0.17-5.84-0.17c-0.62,0-1.85,0-3.2,0.06
					c-1.29,0-2.75,0.11-3.87,0.11c-0.73,0-1.12-0.17-1.12-0.56c0-0.28,0.23-0.45,0.9-0.45c0.84,0,1.51-0.11,2.02-0.22
					c1.12-0.23,1.4-1.46,1.63-3.09c0.28-2.36,0.28-6.79,0.28-11.95V1337.48z"/>
				<path class="st2" d="M1053.73,1358.3c-5.5-4.83-6.96-11.11-6.96-16.55c0-3.82,1.18-10.44,6.57-15.37
					c4.04-3.7,9.37-5.95,17.73-5.95c3.48,0,5.55,0.23,8.14,0.56c2.13,0.28,3.93,0.79,5.61,0.95c0.62,0.06,0.84,0.34,0.84,0.67
					c0,0.45-0.17,1.12-0.28,3.09c-0.11,1.85-0.06,4.94-0.17,6.06c-0.06,0.84-0.17,1.29-0.67,1.29c-0.45,0-0.56-0.45-0.56-1.23
					c-0.06-1.74-0.78-3.7-2.19-5.16c-1.85-1.96-6.23-3.48-11.39-3.48c-4.88,0-8.08,1.23-10.55,3.48c-4.1,3.76-5.16,9.09-5.16,14.53
					c0,13.35,10.15,19.98,17.68,19.98c4.99,0,8.02-0.56,10.27-3.14c0.95-1.07,1.68-2.69,1.91-3.7c0.17-0.9,0.28-1.12,0.73-1.12
					c0.39,0,0.51,0.39,0.51,0.84c0,0.67-0.67,5.56-1.24,7.46c-0.28,0.95-0.5,1.24-1.46,1.63c-2.24,0.9-6.51,1.29-10.1,1.29
					C1065.29,1364.42,1058.83,1362.73,1053.73,1358.3z"/>
				<path class="st2" d="M1136.5,1348.98c-0.28,0-0.39,0.11-0.51,0.45l-3.03,8.02c-0.56,1.4-0.84,2.75-0.84,3.42
					c0,1.01,0.51,1.74,2.25,1.74h0.84c0.67,0,0.84,0.11,0.84,0.45c0,0.45-0.34,0.56-0.95,0.56c-1.8,0-4.21-0.17-5.95-0.17
					c-0.62,0-3.7,0.17-6.62,0.17c-0.73,0-1.07-0.11-1.07-0.56c0-0.34,0.23-0.45,0.67-0.45c0.5,0,1.29-0.06,1.74-0.11
					c2.58-0.34,3.65-2.24,4.77-5.05l14.08-35.24c0.67-1.63,1.01-2.25,1.57-2.25c0.5,0,0.84,0.51,1.4,1.8
					c1.35,3.09,10.32,25.98,13.92,34.51c2.13,5.05,3.76,5.84,4.94,6.12c0.84,0.17,1.68,0.22,2.36,0.22c0.45,0,0.73,0.06,0.73,0.45
					c0,0.45-0.5,0.56-2.58,0.56c-2.02,0-6.12,0-10.61-0.11c-1.01-0.06-1.68-0.06-1.68-0.45c0-0.34,0.23-0.45,0.78-0.5
					c0.39-0.11,0.79-0.62,0.51-1.29l-4.49-11.9c-0.11-0.28-0.28-0.39-0.56-0.39H1136.5z M1147.94,1346.18
					c0.28,0,0.34-0.17,0.28-0.34l-5.05-13.86c-0.06-0.23-0.11-0.51-0.28-0.51s-0.28,0.28-0.34,0.51l-5.16,13.8
					c-0.06,0.23,0,0.39,0.22,0.39H1147.94z"/>
				<path class="st2" d="M1211.52,1321.43c0.17-0.95,0.5-1.46,0.95-1.46c0.45,0,0.79,0.28,1.52,1.74l15.32,31.65l15.26-32.04
					c0.45-0.9,0.73-1.35,1.23-1.35c0.51,0,0.84,0.56,1.01,1.74l5.11,34.68c0.5,3.53,1.07,5.16,2.75,5.67
					c1.63,0.51,2.75,0.56,3.48,0.56c0.51,0,0.9,0.06,0.9,0.39c0,0.45-0.67,0.62-1.46,0.62c-1.4,0-9.14-0.17-11.39-0.34
					c-1.29-0.11-1.63-0.28-1.63-0.62c0-0.28,0.22-0.45,0.62-0.62c0.34-0.11,0.5-0.84,0.28-2.41l-3.37-24.69h-0.22l-12.23,25.47
					c-1.29,2.64-1.57,3.14-2.08,3.14c-0.5,0-1.07-1.12-1.96-2.81c-1.35-2.58-5.78-11.16-6.45-12.74c-0.51-1.18-3.87-8.25-5.84-12.46
					h-0.23l-2.92,22.33c-0.11,1.01-0.17,1.74-0.17,2.64c0,1.07,0.73,1.57,1.68,1.79c1.01,0.23,1.79,0.28,2.36,0.28
					c0.45,0,0.84,0.11,0.84,0.39c0,0.5-0.51,0.62-1.35,0.62c-2.36,0-4.88-0.17-5.89-0.17c-1.07,0-3.76,0.17-5.56,0.17
					c-0.56,0-1.01-0.11-1.01-0.62c0-0.28,0.34-0.39,0.9-0.39c0.45,0,0.84,0,1.68-0.17c1.57-0.34,2.02-2.53,2.3-4.43L1211.52,1321.43
					z"/>
				<path class="st2" d="M1302.76,1337.48c0-8.53,0-10.1-0.11-11.9c-0.11-1.91-0.56-2.8-2.41-3.2c-0.45-0.11-1.4-0.17-2.19-0.17
					c-0.62,0-0.95-0.11-0.95-0.51c0-0.39,0.39-0.5,1.23-0.5c2.97,0,6.51,0.17,8.08,0.17c2.3,0,5.56-0.17,8.14-0.17
					c7.01,0,9.54,2.36,10.44,3.2c1.23,1.18,2.8,3.7,2.8,6.68c0,7.97-5.83,13.58-13.8,13.58c-0.28,0-0.9,0-1.18-0.06
					c-0.28-0.06-0.67-0.11-0.67-0.51c0-0.45,0.39-0.62,1.57-0.62c3.14,0,7.52-3.54,7.52-9.26c0-1.85-0.17-5.61-3.31-8.42
					c-2.02-1.85-4.32-2.19-5.61-2.19c-0.84,0-1.68,0.06-2.19,0.22c-0.28,0.11-0.45,0.45-0.45,1.07v22.44c0,5.16,0,9.6,0.28,12.01
					c0.17,1.57,0.51,2.81,2.19,3.03c0.79,0.11,2.02,0.22,2.86,0.22c0.62,0,0.9,0.17,0.9,0.45c0,0.39-0.45,0.56-1.07,0.56
					c-3.7,0-7.24-0.17-8.7-0.17c-1.29,0-4.83,0.17-7.07,0.17c-0.73,0-1.12-0.17-1.12-0.56c0-0.28,0.23-0.45,0.9-0.45
					c0.84,0,1.51-0.11,2.02-0.22c1.12-0.23,1.4-1.46,1.63-3.09c0.28-2.36,0.28-6.79,0.28-11.95V1337.48z"/>
			</g>
		</g>
		<g>
			<polygon class="st1" points="629.4,1351.55 478.94,1342.67 629.4,1333.8 			"/>
			<polygon class="st1" points="1370.6,1351.55 1521.06,1342.67 1370.6,1333.8 			"/>
		</g>
	</g>
</g>
</svg>
